<svg xmlns="http://www.w3.org/2000/svg" width="21.297" height="21.146" viewBox="0 0 21.297 21.146">
  <g id="Group_261" data-name="Group 261" transform="translate(0 0)">
    <path id="Path_306" data-name="Path 306" d="M601.749,356.682c-1.228-1.294-.647-7.247-.614-8.444a1.578,1.578,0,0,1,1.907-1.683c1.2.065,6.335-.226,7.822.615s9.47,8.93,10.569,10.385c1.252,1.659.961,2.065,0,3.236l-6.4,6.374a2.29,2.29,0,0,1-3.167-.227Zm3.83-7.409A1.731,1.731,0,1,0,607.309,351,1.73,1.73,0,0,0,605.579,349.273Z" transform="translate(-600.969 -346.55)" fill="#7a6b6a"/>
  </g>
</svg>
