<?xml version="1.0" encoding="utf-8"?>
<!-- Generator: Adobe Illustrator 16.0.0, SVG Export Plug-In . SVG Version: 6.00 Build 0)  -->
<!DOCTYPE svg PUBLIC "-//W3C//DTD SVG 1.1//EN" "http://www.w3.org/Graphics/SVG/1.1/DTD/svg11.dtd">
<svg version="1.1" id="Layer_1" xmlns="http://www.w3.org/2000/svg" xmlns:xlink="http://www.w3.org/1999/xlink" x="0px" y="0px"
	 width="20.395px" height="21.146px" viewBox="0 0 20.395 21.146" enable-background="new 0 0 20.395 21.146" xml:space="preserve">
<g id="Group_1760" transform="translate(0 0)" opacity="0.5">
	<path id="Path_2416" fill="#9A8B8A" d="M19.352,9.785H1.042C0.467,9.802-0.014,9.351-0.031,8.776
		C-0.05,8.201,0.402,7.719,0.977,7.702c0.021-0.001,0.043-0.001,0.064,0h18.311c0.575,0.018,1.026,0.499,1.009,1.074
		C20.344,9.326,19.902,9.768,19.352,9.785z"/>
	<path id="Path_2417" fill="#9A8B8A" d="M19.352,2.084H1.042C0.467,2.085,0,1.618-0.001,1.043c0-0.575,0.466-1.042,1.042-1.043
		h0.001h18.311c0.575,0.001,1.041,0.468,1.041,1.043S19.927,2.084,19.352,2.084z"/>
	<path id="Path_2418" fill="#9A8B8A" d="M19.352,17.487H1.042c-0.575,0-1.042-0.466-1.043-1.041c0-0.576,0.466-1.043,1.042-1.043
		h0.001h18.311c0.575,0,1.041,0.467,1.041,1.043C20.393,17.02,19.927,17.486,19.352,17.487z"/>
</g>
</svg>
