<?xml version="1.0" encoding="utf-8"?>
<!-- Generator: Adobe Illustrator 18.1.1, SVG Export Plug-In . SVG Version: 6.00 Build 0)  -->
<!DOCTYPE svg PUBLIC "-//W3C//DTD SVG 1.1//EN" "http://www.w3.org/Graphics/SVG/1.1/DTD/svg11.dtd">
<svg version="1.1" id="レイヤー_1" xmlns="http://www.w3.org/2000/svg" xmlns:xlink="http://www.w3.org/1999/xlink" x="0px"
	 y="0px" viewBox="0 0 595.3 841.9" enable-background="new 0 0 595.3 841.9" xml:space="preserve">
<g>
	<g>
		<path fill="#673A3A" d="M325,397.2H172c-3.9,0-7-3.1-7-7s3.1-7,7-7h153c3.9,0,7,3.1,7,7S328.9,397.2,325,397.2z"/>
		<path fill="#673A3A" d="M417,441.4H172c-3.9,0-7-3.1-7-7s3.1-7,7-7h245c3.9,0,7,3.1,7,7S420.9,441.4,417,441.4z"/>
		<path fill="#673A3A" d="M417,485.5H172c-3.9,0-7-3.1-7-7s3.1-7,7-7h245c3.9,0,7,3.1,7,7S420.9,485.5,417,485.5z"/>
	</g>
	<path fill="#673A3A" d="M445.3,550.9H152.7c-21,0-38-17.1-38-38.1v-177c0-21,17.1-38,38-38h292.5c21,0,38,17.1,38,38v177
		C483.3,533.8,466.2,550.9,445.3,550.9z M152.7,319.8c-8.8,0-16,7.2-16,16v177c0,8.9,7.2,16,16,16h292.5c8.8,0,16-7.2,16-16v-177
		c0-8.8-7.2-16-16-16H152.7z"/>
</g>
</svg>
