<?xml version="1.0" encoding="utf-8"?>
<!-- Generator: Adobe Illustrator 16.0.0, SVG Export Plug-In . SVG Version: 6.00 Build 0)  -->
<!DOCTYPE svg PUBLIC "-//W3C//DTD SVG 1.1//EN" "http://www.w3.org/Graphics/SVG/1.1/DTD/svg11.dtd">
<svg version="1.1" id="Layer_1" xmlns="http://www.w3.org/2000/svg" xmlns:xlink="http://www.w3.org/1999/xlink" x="0px" y="0px"
	 width="25.238px" height="21px" viewBox="0 0 25.238 21" enable-background="new 0 0 25.238 21" xml:space="preserve">
<g id="Group_1911" transform="translate(0 0)" opacity="0.5">
	<path id="Path_2604" fill="#7A6B6A" d="M0.06,5.207L0,5.268l2.049,2.049l0.059-0.061c5.826-5.813,15.258-5.813,21.084,0
		l2.049-2.048C18.282-1.734,7.018-1.735,0.06,5.207z"/>
	<path id="Path_2605" fill="#7A6B6A" d="M4.224,9.371c-0.02,0.02-0.039,0.041-0.059,0.062l2.048,2.047l0.059-0.062
		c3.525-3.516,9.231-3.516,12.756,0l2.049-2.048C16.419,4.725,8.881,4.725,4.224,9.371z"/>
	<path id="Path_2606" fill="#7A6B6A" d="M8.665,13.809c-0.021,0.02-0.039,0.041-0.06,0.062l2.049,2.05
		c0.02-0.021,0.037-0.043,0.058-0.063c1.07-1.068,2.804-1.068,3.874,0l2.048-2.049C14.432,11.612,10.867,11.611,8.665,13.809z"/>
</g>
</svg>
