<svg xmlns="http://www.w3.org/2000/svg" width="28.199" height="21.146" viewBox="0 0 28.199 21.146">
  <g id="Group_2321" data-name="Group 2321" transform="translate(-41.945 -149.457)">
    <rect id="Rectangle_116" data-name="Rectangle 116" width="24.822" height="15.985" transform="translate(43.634 151.146)" fill="#fff"/>
    <g id="Group_290" data-name="Group 290" transform="translate(41.945 149.457)">
      <path id="Path_313" data-name="Path 313" d="M108.788,369.557H86.4a2.9,2.9,0,0,1-2.906-2.906V353.1A2.9,2.9,0,0,1,86.4,350.2h22.386a2.9,2.9,0,0,1,2.907,2.907v13.55A2.925,2.925,0,0,1,108.788,369.557ZM86.4,351.884a1.224,1.224,0,0,0-1.218,1.218v13.55a1.224,1.224,0,0,0,1.218,1.218h22.386a1.224,1.224,0,0,0,1.218-1.218V353.1a1.224,1.224,0,0,0-1.218-1.218Z" transform="translate(-83.495 -350.195)" fill="#7a6b6a"/>
      <g id="Group_289" data-name="Group 289" transform="translate(9.574 5.144)">
        <rect id="Rectangle_117" data-name="Rectangle 117" width="4.519" height="9.075" fill="#7a6b6a"/>
        <rect id="Rectangle_118" data-name="Rectangle 118" width="4.519" height="9.075" transform="translate(4.532)" fill="#eaabb8"/>
      </g>
    </g>
  </g>
</svg>
