<?xml version="1.0" encoding="utf-8"?>
<!-- Generator: Adobe Illustrator 16.0.0, SVG Export Plug-In . SVG Version: 6.00 Build 0)  -->
<!DOCTYPE svg PUBLIC "-//W3C//DTD SVG 1.1//EN" "http://www.w3.org/Graphics/SVG/1.1/DTD/svg11.dtd">
<svg version="1.1" id="Layer_1" xmlns="http://www.w3.org/2000/svg" xmlns:xlink="http://www.w3.org/1999/xlink" x="0px" y="0px"
	 width="28.199px" height="21.146px" viewBox="0 0 28.199 21.146" enable-background="new 0 0 28.199 21.146" xml:space="preserve">
<g id="Group_2321" transform="translate(-41.945 -149.457)" opacity="0.5">
	<rect id="Rectangle_116" x="43.634" y="151.146" fill="#FFFFFF" width="24.823" height="15.984"/>
	<g id="Group_290" transform="translate(41.945 149.457)">
		<path id="Path_313" fill="#7A6B6A" d="M25.293,19.362H2.905c-1.602,0.003-2.902-1.293-2.906-2.895c0-0.004,0-0.008,0-0.012V2.905
			c0-1.602,1.298-2.9,2.9-2.9c0.002,0,0.004,0,0.006,0h22.386c1.602-0.004,2.903,1.292,2.907,2.894c0,0.004,0,0.009,0,0.014v13.55
			C28.185,18.059,26.891,19.351,25.293,19.362z M2.905,1.689C2.234,1.692,1.69,2.235,1.687,2.907v13.55
			c0.003,0.672,0.547,1.215,1.218,1.218h22.386c0.672-0.003,1.215-0.546,1.218-1.218V2.905c-0.003-0.672-0.546-1.215-1.218-1.218
			L2.905,1.689z"/>
		<g id="Group_289" transform="translate(9.574 5.144)">
			<rect id="Rectangle_117" x="0" y="0" fill="#7A6B6A" width="4.519" height="9.074"/>
			<rect id="Rectangle_118" x="4.532" y="0" fill="#EAABB8" width="4.519" height="9.074"/>
		</g>
	</g>
</g>
</svg>
