<?xml version="1.0" encoding="utf-8"?>
<!-- Generator: Adobe Illustrator 16.0.0, SVG Export Plug-In . SVG Version: 6.00 Build 0)  -->
<!DOCTYPE svg PUBLIC "-//W3C//DTD SVG 1.1//EN" "http://www.w3.org/Graphics/SVG/1.1/DTD/svg11.dtd">
<svg version="1.1" id="Layer_1" xmlns="http://www.w3.org/2000/svg" xmlns:xlink="http://www.w3.org/1999/xlink" x="0px" y="0px"
	 width="28.199px" height="21.146px" viewBox="0 0 28.199 21.146" enable-background="new 0 0 28.199 21.146" xml:space="preserve">
<g id="Group_2322" transform="translate(-129.023 -149.457)" opacity="0.5">
	<rect id="Rectangle_119" x="130.412" y="151.146" fill="#FFFFFF" width="26.093" height="16.664"/>
	<g id="Group_291" transform="translate(129.023 149.457)">
		<path id="Path_314" fill="#7A6B6A" d="M25.293,19.362H2.907C1.305,19.366,0.004,18.07,0,16.469c0-0.004,0-0.008,0-0.013V2.905
			c-0.004-1.602,1.292-2.903,2.893-2.907c0.004,0,0.009,0,0.014,0h22.386c1.602-0.004,2.903,1.291,2.907,2.893
			c0,0.005,0,0.01,0,0.015v13.55C28.19,18.056,26.895,19.352,25.293,19.362z M2.907,1.689C2.236,1.693,1.693,2.236,1.69,2.907v13.55
			c0.003,0.671,0.546,1.214,1.217,1.218h22.386c0.672-0.003,1.215-0.547,1.218-1.218V2.905c-0.003-0.672-0.546-1.215-1.218-1.218
			L2.907,1.689z"/>
		<rect id="Rectangle_120" x="2.912" y="2.899" fill="#7A6B6A" width="22.375" height="8.064"/>
		<rect id="Rectangle_121" x="7.465" y="13.682" fill="#7A6B6A" width="13.27" height="2.194"/>
	</g>
</g>
</svg>
