<svg xmlns="http://www.w3.org/2000/svg" width="28.199" height="21.146" viewBox="0 0 28.199 21.146">
  <g id="Group_2322" data-name="Group 2322" transform="translate(-129.023 -149.457)">
    <rect id="Rectangle_119" data-name="Rectangle 119" width="26.094" height="16.664" transform="translate(130.412 151.146)" fill="#fff"/>
    <g id="Group_291" data-name="Group 291" transform="translate(129.023 149.457)">
      <path id="Path_314" data-name="Path 314" d="M282.37,369.557H259.984a2.9,2.9,0,0,1-2.907-2.906V353.1a2.9,2.9,0,0,1,2.907-2.907H282.37a2.9,2.9,0,0,1,2.907,2.907v13.55A2.925,2.925,0,0,1,282.37,369.557Zm-22.386-17.673a1.224,1.224,0,0,0-1.217,1.218v13.55a1.224,1.224,0,0,0,1.217,1.218H282.37a1.224,1.224,0,0,0,1.218-1.218V353.1a1.224,1.224,0,0,0-1.218-1.218Z" transform="translate(-257.077 -350.195)" fill="#7a6b6a"/>
      <rect id="Rectangle_120" data-name="Rectangle 120" width="22.375" height="8.065" transform="translate(2.912 2.899)" fill="#7a6b6a"/>
      <rect id="Rectangle_121" data-name="Rectangle 121" width="13.27" height="2.195" transform="translate(7.465 13.682)" fill="#7a6b6a"/>
    </g>
  </g>
</svg>
