<?xml version="1.0" encoding="utf-8"?>
<!-- Generator: Adobe Illustrator 16.0.0, SVG Export Plug-In . SVG Version: 6.00 Build 0)  -->
<!DOCTYPE svg PUBLIC "-//W3C//DTD SVG 1.1//EN" "http://www.w3.org/Graphics/SVG/1.1/DTD/svg11.dtd">
<svg version="1.1" id="Layer_1" xmlns="http://www.w3.org/2000/svg" xmlns:xlink="http://www.w3.org/1999/xlink" x="0px" y="0px"
	 width="18.164px" height="21px" viewBox="0 0 18.164 21" enable-background="new 0 0 18.164 21" xml:space="preserve">
<path id="Path_1698" opacity="0.5" fill="#7A6B6A" d="M13.86,20.275l-0.009-0.006c0,0.006,0,0.012-0.009,0.017
	c-0.79,1.369-4.5,0.708-8.275-1.478c-3.776-2.187-6.207-5.067-5.417-6.437l0.01-0.015l0,0l2.706-4.692h0.008
	c0.785-1.019,3.455-0.695,6.467,0.7c0.673-0.427,1.224-1.021,1.6-1.723c0.419-0.752,0-3.6,0.535-4.661s0.725-3.216,4.46-1.059
	c3.734,2.157,1.762,3.484,1.272,4.334c-0.488,0.85-3.271,1.833-3.8,2.8c-0.399,0.675-0.662,1.423-0.771,2.2
	c2.756,1.93,4.406,4.112,3.912,5.313l0.018,0.009L13.86,20.275z M8.352,13.987c-2.825-1.634-5.534-2.229-6.052-1.332
	c-0.518,0.897,1.354,2.948,4.178,4.579c2.825,1.633,5.535,2.229,6.052,1.332C13.047,17.67,11.178,15.62,8.352,13.987z"/>
</svg>
