<?xml version="1.0" encoding="utf-8"?>
<!-- Generator: Adobe Illustrator 16.0.0, SVG Export Plug-In . SVG Version: 6.00 Build 0)  -->
<!DOCTYPE svg PUBLIC "-//W3C//DTD SVG 1.1//EN" "http://www.w3.org/Graphics/SVG/1.1/DTD/svg11.dtd">
<svg version="1.1" id="Layer_1" xmlns="http://www.w3.org/2000/svg" xmlns:xlink="http://www.w3.org/1999/xlink" x="0px" y="0px"
	 width="21.297px" height="21.146px" viewBox="0 0 21.297 21.146" enable-background="new 0 0 21.297 21.146" xml:space="preserve">
<g id="Group_261" transform="translate(0 0)" opacity="0.5">
	<path id="Path_306" fill="#7A6B6A" d="M0.78,10.132c-1.229-1.294-0.647-7.247-0.614-8.443C0.088,0.82,0.729,0.053,1.597-0.025
		c0.159-0.015,0.32-0.005,0.477,0.029c1.2,0.065,6.335-0.226,7.822,0.615s9.47,8.93,10.569,10.385c1.252,1.659,0.961,2.065,0,3.236
		l-6.399,6.374c-0.945,0.787-2.344,0.687-3.167-0.228L0.78,10.132z M4.61,2.723C3.654,2.722,2.878,3.497,2.878,4.453
		s0.774,1.731,1.73,1.732c0.956,0,1.731-0.774,1.732-1.73c0-0.002,0-0.003,0-0.005C6.338,3.496,5.564,2.722,4.61,2.723L4.61,2.723z"
		/>
</g>
</svg>
