<?xml version="1.0" encoding="utf-8"?>
<!-- Generator: Adobe Illustrator 16.0.0, SVG Export Plug-In . SVG Version: 6.00 Build 0)  -->
<!DOCTYPE svg PUBLIC "-//W3C//DTD SVG 1.1//EN" "http://www.w3.org/Graphics/SVG/1.1/DTD/svg11.dtd">
<svg version="1.1" id="Layer_1" xmlns="http://www.w3.org/2000/svg" xmlns:xlink="http://www.w3.org/1999/xlink" x="0px" y="0px"
	 width="20.395px" height="21.146px" viewBox="0 0 20.395 21.146" enable-background="new 0 0 20.395 21.146" xml:space="preserve">
  <g id="Group_1760" data-name="Group 1760" transform="translate(0 0)">
    <path id="Path_2416" data-name="Path 2416" d="M221.537,176.876h-18.31a1.042,1.042,0,1,1,0-2.083h18.31a1.042,1.042,0,0,1,0,2.083Z" transform="translate(-202.185 -167.091)" fill="#9a8b8a"/>
    <path id="Path_2417" data-name="Path 2417" d="M221.537,161.527h-18.31a1.042,1.042,0,1,1,0-2.084h18.31a1.042,1.042,0,0,1,0,2.084Z" transform="translate(-202.185 -159.443)" fill="#9a8b8a"/>
    <path id="Path_2418" data-name="Path 2418" d="M221.537,192.226h-18.31a1.042,1.042,0,1,1,0-2.084h18.31a1.042,1.042,0,0,1,0,2.084Z" transform="translate(-202.185 -174.739)" fill="#9a8b8a"/>
  </g>
</svg>
