<svg xmlns="http://www.w3.org/2000/svg" width="22.294" height="22.294" viewBox="0 0 22.294 22.294">
  <g id="Group_1604" data-name="Group 1604" transform="translate(0 0)">
    <circle id="Ellipse_64" data-name="Ellipse 64" cx="11.012" cy="11.012" r="11.012" transform="translate(0.135 0.135)" fill="#fff"/>
    <g id="Group_1603" data-name="Group 1603">
      <path id="Path_2217" data-name="Path 2217" d="M676.093,494.973a11.147,11.147,0,1,1,11.147-11.147A11.159,11.159,0,0,1,676.093,494.973Zm0-21.144a10,10,0,1,0,10,10A10.009,10.009,0,0,0,676.093,473.828Z" transform="translate(-664.946 -472.679)" fill="#673a3a"/>
      <g id="Group_1602" data-name="Group 1602" transform="translate(8.387 4.246)">
        <path id="Path_2218" data-name="Path 2218" d="M687.439,481.587a1.409,1.409,0,0,0-.412,1.017,1.379,1.379,0,0,0,.418,1.011,1.364,1.364,0,0,0,1,.417,1.4,1.4,0,0,0,1.017-.417,1.369,1.369,0,0,0,.424-1.011,1.437,1.437,0,0,0-1.441-1.441A1.348,1.348,0,0,0,687.439,481.587Z" transform="translate(-684.364 -481.163)" fill="#673a3a"/>
        <path id="Path_2219" data-name="Path 2219" d="M685.809,490.14l-3.306.532-.121.388q.194-.013.351-.013a.721.721,0,0,1,.5.17.511.511,0,0,1,.188.387,3.973,3.973,0,0,1-.194,1l-1.356,4.661a3.3,3.3,0,0,0-.169.92,1.19,1.19,0,0,0,.375.9,1.4,1.4,0,0,0,1,.357q1.658,0,3.136-2.567l-.339-.194A5.709,5.709,0,0,1,684.829,498a.48.48,0,0,1-.327.145.241.241,0,0,1-.181-.1.293.293,0,0,1-.085-.194,3.96,3.96,0,0,1,.158-.787l2-6.925Z" transform="translate(-681.705 -485.648)" fill="#673a3a"/>
      </g>
    </g>
  </g>
</svg>
