<svg xmlns="http://www.w3.org/2000/svg" width="18.164" height="21" viewBox="0 0 18.164 21">
  <path id="Path_1698" data-name="Path 1698" d="M-3256.333,349.924l-.009-.006c0,.005,0,.011-.008.016-.79,1.369-4.5.708-8.276-1.478s-6.207-5.067-5.417-6.436l.01-.015h0l2.706-4.692.008,0c.785-1.019,3.455-.695,6.467.7a4.616,4.616,0,0,0,1.6-1.723c.419-.752,0-3.6.535-4.661s.725-3.216,4.46-1.059,1.762,3.484,1.273,4.334-3.272,1.833-3.8,2.8a5.938,5.938,0,0,0-.771,2.2c2.756,1.929,4.407,4.112,3.913,5.313l.017.009Zm-5.508-6.289c-2.825-1.633-5.534-2.229-6.052-1.332s1.353,2.948,4.178,4.58,5.535,2.229,6.052,1.332S-3259.015,345.268-3261.841,343.635Z" transform="translate(3270.193 -329.648)" fill="#ffffff"/>
</svg>
