<?xml version="1.0" encoding="utf-8"?>
<!-- Generator: Adobe Illustrator 16.0.0, SVG Export Plug-In . SVG Version: 6.00 Build 0)  -->
<!DOCTYPE svg PUBLIC "-//W3C//DTD SVG 1.1//EN" "http://www.w3.org/Graphics/SVG/1.1/DTD/svg11.dtd">
<svg version="1.1" id="Group_262" xmlns="http://www.w3.org/2000/svg" xmlns:xlink="http://www.w3.org/1999/xlink" x="0px" y="0px"
	 width="28.074px" height="21.146px" viewBox="0 0 28.074 21.146" enable-background="new 0 0 28.074 21.146" xml:space="preserve">
<path id="Path_307" opacity="0.5" fill="#7A6B6A" d="M27.9,4.168c0.059-0.01,0.117-0.013,0.175-0.02V0.801
	c0-0.441-0.358-0.8-0.8-0.8H0.801c-0.441,0-0.8,0.358-0.8,0.8v3.331c1.835-0.131,3.43,1.251,3.562,3.086
	c0.131,1.836-1.25,3.43-3.086,3.562c-0.158,0.012-0.317,0.012-0.476,0v3.333c0,0.441,0.358,0.8,0.8,0.8h26.473
	c0.441,0,0.8-0.358,0.8-0.8v-3.346c-1.829-0.198-3.151-1.841-2.954-3.67c0.161-1.491,1.299-2.691,2.779-2.931L27.9,4.168z
	 M23.007,4.648c0.233,0.001,0.423,0.191,0.421,0.425c-0.001,0.233-0.191,0.422-0.425,0.421s-0.422-0.191-0.421-0.425l0,0
	c-0.001-0.231,0.186-0.42,0.417-0.421C23.002,4.648,23.005,4.648,23.007,4.648L23.007,4.648z M22.582,3.394
	c0.001-0.234,0.191-0.423,0.425-0.421c0.233,0.001,0.423,0.191,0.421,0.425c-0.001,0.231-0.188,0.42-0.421,0.421
	C22.773,3.819,22.583,3.629,22.582,3.394C22.583,3.394,22.583,3.394,22.582,3.394L22.582,3.394z M23.007,6.322
	c0.235,0,0.425,0.19,0.425,0.425c0,0.235-0.189,0.425-0.425,0.425c-0.234,0-0.425-0.189-0.425-0.425l0,0
	c-0.003-0.232,0.184-0.424,0.417-0.427c0.003,0,0.006,0,0.009,0L23.007,6.322z M23.007,8.001c0.235,0,0.425,0.19,0.425,0.425
	c0,0.235-0.189,0.426-0.425,0.426c-0.234,0-0.425-0.19-0.425-0.426l0,0c-0.002-0.232,0.186-0.423,0.419-0.425
	C23.004,8.001,23.006,8.001,23.007,8.001L23.007,8.001z M23.007,9.68c0.235,0,0.425,0.189,0.425,0.425
	c0,0.234-0.189,0.425-0.425,0.425c-0.234,0-0.425-0.19-0.425-0.425l0,0c-0.004-0.232,0.182-0.423,0.414-0.426
	C23,9.678,23.004,9.678,23.007,9.68L23.007,9.68z M23.007,11.355c0.235,0,0.425,0.19,0.425,0.425s-0.189,0.425-0.425,0.425
	c-0.234,0-0.425-0.19-0.425-0.425l0,0c-0.002-0.233,0.186-0.424,0.418-0.426C23.002,11.354,23.006,11.354,23.007,11.355
	L23.007,11.355z M23.423,13.543l-0.026,0.077l-0.037,0.077c-0.018,0.021-0.034,0.042-0.056,0.063
	c-0.039,0.038-0.085,0.068-0.136,0.09c-0.051,0.023-0.105,0.035-0.162,0.033c-0.236-0.002-0.425-0.195-0.422-0.432
	c0.001-0.11,0.045-0.216,0.122-0.294c0.122-0.121,0.306-0.156,0.464-0.089c0.051,0.021,0.098,0.051,0.137,0.089
	c0.02,0.021,0.039,0.044,0.055,0.068c0.013,0.021,0.025,0.047,0.037,0.071c0.013,0.025,0.018,0.052,0.026,0.081
	c0.005,0.027,0.009,0.054,0.009,0.081C23.432,13.487,23.428,13.515,23.423,13.543L23.423,13.543z M23.423,1.802l-0.026,0.076
	l-0.037,0.076c-0.018,0.022-0.036,0.044-0.056,0.064c-0.039,0.037-0.085,0.067-0.136,0.089s-0.106,0.033-0.162,0.034
	C22.77,2.138,22.58,1.946,22.583,1.71c0.001-0.11,0.045-0.217,0.123-0.296c0.122-0.121,0.306-0.156,0.464-0.089
	c0.051,0.021,0.098,0.051,0.137,0.089c0.02,0.021,0.037,0.042,0.055,0.064l0.037,0.075l0.026,0.077
	c0.005,0.028,0.008,0.057,0.009,0.085C23.432,1.745,23.428,1.773,23.423,1.802L23.423,1.802z"/>
</svg>
