<svg id="Group_262" data-name="Group 262" xmlns="http://www.w3.org/2000/svg" width="28.074" height="21.146" viewBox="0 0 28.074 21.146">
  <path id="Path_307" data-name="Path 307" d="M451.679,356.148c.058-.01.116-.013.174-.02v-3.347a.8.8,0,0,0-.8-.8H424.579a.8.8,0,0,0-.8.8v3.331a3.332,3.332,0,1,1,0,6.647v3.333a.8.8,0,0,0,.8.8h26.472a.8.8,0,0,0,.8-.8v-3.346a3.331,3.331,0,0,1-.174-6.6Zm-4.894.48a.423.423,0,1,1-.425.421A.419.419,0,0,1,446.786,356.628Zm-.425-1.254a.423.423,0,1,1,.425.425A.424.424,0,0,1,446.361,355.374Zm.425,2.928a.425.425,0,1,1-.425.425A.422.422,0,0,1,446.786,358.3Zm0,1.679a.425.425,0,1,1-.425.425A.422.422,0,0,1,446.786,359.981Zm0,1.679a.425.425,0,1,1-.425.425A.42.42,0,0,1,446.786,361.659Zm0,1.675a.425.425,0,1,1-.425.425A.422.422,0,0,1,446.786,363.334Zm.416,2.188-.026.077-.038.077c-.017.021-.034.042-.055.064a.435.435,0,0,1-.136.089.363.363,0,0,1-.162.034.427.427,0,0,1-.3-.726.424.424,0,0,1,.464-.089.418.418,0,0,1,.136.089.428.428,0,0,1,.055.068c.013.022.026.047.038.072s.017.051.026.081a.554.554,0,0,1,.009.081A.61.61,0,0,1,447.2,365.522Zm0-11.741-.026.076-.038.076a.793.793,0,0,1-.055.064.436.436,0,0,1-.136.089.428.428,0,0,1-.162.034.427.427,0,0,1-.3-.727.425.425,0,0,1,.464-.089.419.419,0,0,1,.136.089.713.713,0,0,1,.055.064l.038.076.026.077a.686.686,0,0,1,.009.085A.616.616,0,0,1,447.2,353.781Z" transform="translate(-423.778 -351.98)" fill="#7a6b6a"/>
</svg>
