<?xml version="1.0" encoding="iso-8859-1"?>
<!-- Generator: Adobe Illustrator 16.0.0, SVG Export Plug-In . SVG Version: 6.00 Build 0)  -->
<!DOCTYPE svg PUBLIC "-//W3C//DTD SVG 1.1//EN" "http://www.w3.org/Graphics/SVG/1.1/DTD/svg11.dtd">
<svg version="1.1" id="Capa_1"
    xmlns="http://www.w3.org/2000/svg"
    xmlns:xlink="http://www.w3.org/1999/xlink" 
	x="0px" y="0px"
	 width="612px" height="612px" 
	 viewBox="0 0 612 612" 
	 style="enable-background:new 0 0 612 612;" 
	fill="#673A3A"
	 xml:space="preserve">
    <g>
        <g id="Book">
            <path d="M577.028,43.714H454.629c-64.243,0-118.309,18.727-148.629,48.068c-30.32-29.341-84.386-48.068-148.628-48.068h-122.4
				C15.702,43.714,0,59.398,0,78.685v402.171c0,19.305,15.702,34.971,34.971,34.971h122.4c46.634,0,97.273,20.039,115.44,38.994
				c8.236,8.604,19.619,13.465,31.527,13.465h3.497c11.82,0,23.134-4.844,31.282-13.412c18.098-18.973,68.788-39.047,115.511-39.047
				h122.399c19.287,0,34.972-15.666,34.972-34.971V78.685C612,59.398,596.315,43.714,577.028,43.714z M279.771,492.048
				c-31.072-17.924-73.807-28.678-122.4-28.678H52.457V96.171h104.915c74.716,0,122.4,31.072,122.4,52.457V492.048z M559.543,463.37
				H454.629c-48.593,0-91.328,10.754-122.4,28.678v-343.42c0-21.385,47.684-52.457,122.4-52.457h104.914V463.37z"/>
        </g>
    </g>
</svg>
